# xmcd
#
# Track frame offsets: 
#        150
#        15340
#        32927
#        44257
#        58082
#        72182
#        83160
#        95367
#        109192
#        118822
#        136145
#
# Disc length: 1952 seconds
#
# Revision: 2
# Processed by: cddbd v1.4PL0 Copyright (c) Steve Scherf et al.
# Submitted via: ExactAudioCopy v0.90b3
#
DISCID=8e079e0b
DTITLE=Merle Haggard - Kern River
DYEAR=1900
DGENRE=Country
TTITLE0=Kern River
TTITLE1=Old Flames Can't Hold A Candle To You
TTITLE2=There I've Said It Again
TTITLE3=You Don't Love Me Anymore
TTITLE4=Natural High
TTITLE5=Big Butter And Egg Man
TTITLE6=Ridin' High
TTITLE7=There's Somebody Else On Your Mind
TTITLE8=I Wonder Where I'll Find You Tonight
TTITLE9=There Won't Be Another Now
TTITLE10=The Old Watermill
EXTD=
EXTT0=
EXTT1=
EXTT2=
EXTT3=
EXTT4=
EXTT5=
EXTT6=
EXTT7=
EXTT8=
EXTT9=
EXTT10=
PLAYORDER=
